<svg width="88" height="100" viewBox="0 0 88 100" fill="none" xmlns="http://www.w3.org/2000/svg">
<path d="M44.0005 8.09375C45.7203 8.09383 47.5529 8.52336 50.2866 9.76172C53.1206 11.0455 56.5354 13.0109 61.4995 15.877L69.8013 20.6699C73.5457 22.8318 76.0403 24.2785 77.8755 25.5938C79.6211 26.8448 80.4364 27.7508 80.9614 28.6602C81.4864 29.5695 81.863 30.7288 82.0737 32.8662C82.2952 35.1131 82.3013 37.9967 82.3013 42.3203V57.6797C82.3013 62.0033 82.2952 64.8869 82.0737 67.1338C81.863 69.2712 81.4864 70.4305 80.9614 71.3398C80.4364 72.2492 79.6211 73.1552 77.8755 74.4062C76.0403 75.7215 73.5457 77.1682 69.8013 79.3301L56.4995 87.0098C52.7553 89.1715 50.2553 90.6084 48.1987 91.54C46.2423 92.4263 45.0496 92.6797 43.9995 92.6797C42.9496 92.6796 41.7574 92.4261 39.8013 91.54C37.7447 90.6084 35.2447 89.1715 31.5005 87.0098L18.1987 79.3301C14.4543 77.1682 11.9597 75.7215 10.1245 74.4062C8.37894 73.1552 7.56359 72.2492 7.03857 71.3398C6.51355 70.4305 6.13697 69.2712 5.92627 67.1338C5.70478 64.8869 5.69873 62.0033 5.69873 57.6797V42.3203C5.69873 37.9967 5.70478 35.1131 5.92627 32.8662C6.13697 30.7288 6.51355 29.5695 7.03857 28.6602C7.56359 27.7508 8.37894 26.8448 10.1245 25.5938C11.9597 24.2785 14.4543 22.8318 18.1987 20.6699L26.5005 15.877C31.4646 13.0109 34.8794 11.0455 37.7134 9.76172C40.4473 8.52325 42.2806 8.09375 44.0005 8.09375Z" stroke="white" stroke-width="10"/>
<path d="M80 33.8496V67.4404C80 71.0178 78.0888 74.3228 74.9883 76.1074L48.4883 91.3604C45.4003 93.1376 41.5997 93.1376 38.5117 91.3604L12.0117 76.1074C8.91122 74.3228 7 71.0178 7 67.4404V33.8496L33.1797 49.6201C39.5284 53.4446 47.4716 53.4446 53.8203 49.6201L80 33.8496Z" fill="white" stroke="white" stroke-width="10" stroke-linejoin="round"/>
<circle cx="43.5" cy="31.5" r="7.5" fill="white"/>
</svg>
